# xmcd
#
# Track frame offsets:
#	150
#	11989
#	25348
#	44262
#	63669
#	73432
#	85367
#	116126
#	134439
#	152375
#	172559
#	192062
#	212997
#	227839
#
# Disc length: 3288 seconds
#
# Revision: 1
# Processed by: cddbd v1.5.2PL0 Copyright (c) Steve Scherf et al.
# Submitted via: audiograbber 1.83.01
#
DISCID=c60cd60e
DTITLE=Al Brisco - Pickin' Your "Picks"
DYEAR=2007
DGENRE=Country
TTITLE0=Ralph's Reel
TTITLE1=You Belong to Me
TTITLE2=South of the Border (Down Mexico Way) - Sweet Dreams Baby
TTITLE3=Swinging Doors
TTITLE4=Swedish Rhapsody
TTITLE5=What a Wonderful World
TTITLE6=Buck Owens Medley
TTITLE7=Harbour Lights
TTITLE8=Something to Talk About
TTITLE9=The Wayward Wind
TTITLE10=Waltzing at The Appledale Cotillion
TTITLE11=Sweet Dreams (Of You) - Crazy
TTITLE12=In the Garden
TTITLE13=Things
EXTD=YEAR: 2007
EXTT0=
EXTT1=
EXTT2=
EXTT3=
EXTT4=
EXTT5=
EXTT6=
EXTT7=
EXTT8=
EXTT9=
EXTT10=
EXTT11=
EXTT12=
EXTT13=
PLAYORDER=
